ffmpeg started on 2025-06-07 at 15:02:54
Report written to "D:\Convert\FFMetrics\reports\psnr_report-6.txt"
Log level: 32
Command line:
ffmpeg -hide_banner -nostdin -i "G:\\\xc0\xed\xe8\xec\xe5\\\xce\xed\xe3\xee\xe8\xed\xe3\xe8\\!_36_\xce\xf1\xe5\xed\xfc_2024\\DreamCast\\\xd1\xee\xe1\xeb\xe0\xe7\xed 2,5-\xec\xe5\xf0\xed\xee\xe3\xee \xe8\xe7\xec\xe5\xf0\xe5\xed\xe8\xff\\[DC] 2-5 Jigen no Ririsa - 05_Telegram_HEVC.mkv" -i "G:\\\xc0\xed\xe8\xec\xe5\\\xce\xed\xe3\xee\xe8\xed\xe3\xe8\\!_36_\xce\xf1\xe5\xed\xfc_2024\\DreamCast\\\xd1\xee\xe1\xeb\xe0\xe7\xed 2,5-\xec\xe5\xf0\xed\xee\xe3\xee \xe8\xe7\xec\xe5\xf0\xe5\xed\xe8\xff\\[DC] 2-5 Jigen no Ririsa - 05_Telegram.mp4" -lavfi "[0:v]settb=AVTB,setpts=PTS-STARTPTS,format=pix_fmts=yuv420p10,fps=24000/1001,scale=1920:1080:flags=bicubic[main];[1:v]settb=AVTB,setpts=PTS-STARTPTS,format=pix_fmts=yuv420p,fps=24000/1001,scale=1920:1080:flags=bicubic[ref];[main][ref]psnr=eof_action=endall:stats_file='D\\:/Convert/FFMetrics/logs/psnr_logfile-6.txt'" -f null -
Input #0, matroska,webm, from 'G:\Аниме\Онгоинги\!_36_Осень_2024\DreamCast\Соблазн 2,5-мерного измерения\[DC] 2-5 Jigen no Ririsa - 05_Telegram_HEVC.mkv':
  Metadata:
    COMPATIBLE_BRANDS: isomiso2avc1mp41
    MAJOR_BRAND     : isom
    MINOR_VERSION   : 512
    ENCODER         : Lavf61.7.100
  Duration: 00:24:07.04, start: -0.021000, bitrate: 1295 kb/s
  Stream #0:0: Video: hevc (Main 10), yuv420p10le(tv, bt709, progressive), 1920x1080 [SAR 1:1 DAR 16:9], 23.98 fps, 23.98 tbr, 1k tbn (default)
      Metadata:
        HANDLER_NAME    : VideoHandler
        VENDOR_ID       : [0][0][0][0]
        ENCODER         : Lavc61.19.100 libx265
        BPS             : 1097710
        DURATION        : 00:24:06.611708333
        NUMBER_OF_FRAMES: 34684
        NUMBER_OF_BYTES : 198495043
        _STATISTICS_WRITING_APP: mkvpropedit v66.0.0 ('Josie') 64-bit
        _STATISTICS_WRITING_DATE_UTC: 2025-06-04 10:10:24
        _STATISTICS_TAGS: BPS DURATION NUMBER_OF_FRAMES NUMBER_OF_BYTES
  Stream #0:1: Audio: aac (LC), 48000 Hz, stereo, fltp (default)
      Metadata:
        HANDLER_NAME    : SoundHandler
        VENDOR_ID       : [0][0][0][0]
        ENCODER         : Lavc61.19.100 aac
        BPS             : 193547
        DURATION        : 00:24:07.040000000
        NUMBER_OF_FRAMES: 67831
        NUMBER_OF_BYTES : 35008852
        _STATISTICS_WRITING_APP: mkvpropedit v66.0.0 ('Josie') 64-bit
        _STATISTICS_WRITING_DATE_UTC: 2025-06-04 10:10:24
        _STATISTICS_TAGS: BPS DURATION NUMBER_OF_FRAMES NUMBER_OF_BYTES
Input #1, mov,mp4,m4a,3gp,3g2,mj2, from 'G:\Аниме\Онгоинги\!_36_Осень_2024\DreamCast\Соблазн 2,5-мерного измерения\[DC] 2-5 Jigen no Ririsa - 05_Telegram.mp4':
  Metadata:
    major_brand     : isom
    minor_version   : 512
    compatible_brands: isomiso2avc1mp41
    encoder         : Lavf61.1.100
  Duration: 00:24:07.02, start: 0.000000, bitrate: 3914 kb/s
  Stream #1:0[0x1](und): Video: h264 (High) (avc1 / 0x31637661), yuv420p(tv, bt709, progressive), 1920x1080 [SAR 1:1 DAR 16:9], 3767 kb/s, 23.98 fps, 23.98 tbr, 24k tbn (default)
      Metadata:
        handler_name    : VideoHandler
        vendor_id       : [0][0][0][0]
        encoder         : Lavc61.3.100 h264_qsv
  Stream #1:1[0x2](und): Audio: aac (HE-AACv2) (mp4a / 0x6134706D), 48000 Hz, stereo, fltp, 144 kb/s (default)
      Metadata:
        handler_name    : SoundHandler
        vendor_id       : [0][0][0][0]
Stream mapping:
  Stream #0:0 (hevc) -> settb:default
  Stream #1:0 (h264) -> settb:default
  psnr:default -> Stream #0:0 (wrapped_avframe)
  Stream #0:1 -> #0:1 (aac (native) -> pcm_s16le (native))
Output #0, null, to 'pipe:':
  Metadata:
    COMPATIBLE_BRANDS: isomiso2avc1mp41
    MAJOR_BRAND     : isom
    MINOR_VERSION   : 512
    encoder         : Lavf61.7.100
  Stream #0:0: Video: wrapped_avframe, yuv420p10le(tv, bt709, progressive), 1920x1080 [SAR 1:1 DAR 16:9], q=2-31, 200 kb/s, 23.98 fps, 23.98 tbn
      Metadata:
        encoder         : Lavc61.19.100 wrapped_avframe
  Stream #0:1: Audio: pcm_s16le, 48000 Hz, stereo, s16, 1536 kb/s (default)
      Metadata:
        HANDLER_NAME    : SoundHandler
        VENDOR_ID       : [0][0][0][0]
        _STATISTICS_TAGS: BPS DURATION NUMBER_OF_FRAMES NUMBER_OF_BYTES
        BPS             : 193547
        DURATION        : 00:24:07.040000000
        NUMBER_OF_FRAMES: 67831
        NUMBER_OF_BYTES : 35008852
        _STATISTICS_WRITING_APP: mkvpropedit v66.0.0 ('Josie') 64-bit
        _STATISTICS_WRITING_DATE_UTC: 2025-06-04 10:10:24
        encoder         : Lavc61.19.100 pcm_s16le
frame=  172 fps=0.0 q=-0.0 size=N/A time=00:00:07.17 bitrate=N/A speed=14.1x    frame=  441 fps=426 q=-0.0 size=N/A time=00:00:18.39 bitrate=N/A speed=17.8x    frame=  682 fps=441 q=-0.0 size=N/A time=00:00:28.44 bitrate=N/A speed=18.4x    frame=  884 fps=430 q=-0.0 size=N/A time=00:00:36.87 bitrate=N/A speed=17.9x    frame= 1090 fps=422 q=-0.0 size=N/A time=00:00:45.46 bitrate=N/A speed=17.6x    frame= 1318 fps=424 q=-0.0 size=N/A time=00:00:54.97 bitrate=N/A speed=17.7x    frame= 1529 fps=421 q=-0.0 size=N/A time=00:01:03.77 bitrate=N/A speed=17.6x    frame= 1718 fps=415 q=-0.0 size=N/A time=00:01:11.65 bitrate=N/A speed=17.3x    frame= 1955 fps=420 q=-0.0 size=N/A time=00:01:21.53 bitrate=N/A speed=17.5x    frame= 2147 fps=415 q=-0.0 size=N/A time=00:01:29.54 bitrate=N/A speed=17.3x    frame= 2332 fps=410 q=-0.0 size=N/A time=00:01:37.26 bitrate=N/A speed=17.1x    frame= 2524 fps=407 q=-0.0 size=N/A time=00:01:45.27 bitrate=N/A speed=  17x    frame= 2712 fps=404 q=-0.0 size=N/A time=00:01:53.11 bitrate=N/A speed=16.9x    frame= 2933 fps=405 q=-0.0 size=N/A time=00:02:02.33 bitrate=N/A speed=16.9x    frame= 3157 fps=408 q=-0.0 size=N/A time=00:02:11.67 bitrate=N/A speed=  17x    frame= 3367 fps=407 q=-0.0 size=N/A time=00:02:20.43 bitrate=N/A speed=  17x    frame= 3525 fps=402 q=-0.0 size=N/A time=00:02:27.02 bitrate=N/A speed=16.8x    frame= 3725 fps=401 q=-0.0 size=N/A time=00:02:35.36 bitrate=N/A speed=16.7x    frame= 3974 fps=405 q=-0.0 size=N/A time=00:02:45.74 bitrate=N/A speed=16.9x    frame= 4186 fps=406 q=-0.0 size=N/A time=00:02:54.59 bitrate=N/A speed=16.9x    frame= 4395 fps=405 q=-0.0 size=N/A time=00:03:03.30 bitrate=N/A speed=16.9x    frame= 4620 fps=407 q=-0.0 size=N/A time=00:03:12.69 bitrate=N/A speed=  17x    frame= 4887 fps=411 q=-0.0 size=N/A time=00:03:23.82 bitrate=N/A speed=17.2x    frame= 5145 fps=415 q=-0.0 size=N/A time=00:03:34.58 bitrate=N/A speed=17.3x    frame= 5367 fps=416 q=-0.0 size=N/A time=00:03:43.84 bitrate=N/A speed=17.3x    frame= 5632 fps=420 q=-0.0 size=N/A time=00:03:54.90 bitrate=N/A speed=17.5x    frame= 5900 fps=423 q=-0.0 size=N/A time=00:04:06.07 bitrate=N/A speed=17.7x    frame= 6111 fps=423 q=-0.0 size=N/A time=00:04:14.87 bitrate=N/A speed=17.6x    frame= 6365 fps=425 q=-0.0 size=N/A time=00:04:25.47 bitrate=N/A speed=17.7x    frame= 6647 fps=429 q=-0.0 size=N/A time=00:04:37.23 bitrate=N/A speed=17.9x    frame= 6891 fps=431 q=-0.0 size=N/A time=00:04:47.41 bitrate=N/A speed=  18x    frame= 7145 fps=433 q=-0.0 size=N/A time=00:04:58.04 bitrate=N/A speed=  18x    frame= 7417 fps=436 q=-0.0 size=N/A time=00:05:09.35 bitrate=N/A speed=18.2x    frame= 7631 fps=435 q=-0.0 size=N/A time=00:05:18.27 bitrate=N/A speed=18.1x    frame= 7878 fps=436 q=-0.0 size=N/A time=00:05:28.57 bitrate=N/A speed=18.2x    frame= 8091 fps=436 q=-0.0 size=N/A time=00:05:37.46 bitrate=N/A speed=18.2x    frame= 8363 fps=438 q=-0.0 size=N/A time=00:05:48.84 bitrate=N/A speed=18.3x    frame= 8600 fps=439 q=-0.0 size=N/A time=00:05:58.69 bitrate=N/A speed=18.3x    frame= 8830 fps=439 q=-0.0 size=N/A time=00:06:08.28 bitrate=N/A speed=18.3x    frame= 9019 fps=437 q=-0.0 size=N/A time=00:06:16.16 bitrate=N/A speed=18.2x    frame= 9295 fps=439 q=-0.0 size=N/A time=00:06:27.67 bitrate=N/A speed=18.3x    frame= 9559 fps=441 q=-0.0 size=N/A time=00:06:38.68 bitrate=N/A speed=18.4x    frame= 9802 fps=442 q=-0.0 size=N/A time=00:06:48.82 bitrate=N/A speed=18.4x    frame=10033 fps=442 q=-0.0 size=N/A time=00:06:58.45 bitrate=N/A speed=18.4x    frame=10279 fps=443 q=-0.0 size=N/A time=00:07:08.71 bitrate=N/A speed=18.5x    frame=10445 fps=440 q=-0.0 size=N/A time=00:07:15.64 bitrate=N/A speed=18.4x    frame=10635 fps=439 q=-0.0 size=N/A time=00:07:23.56 bitrate=N/A speed=18.3x    frame=10880 fps=439 q=-0.0 size=N/A time=00:07:33.78 bitrate=N/A speed=18.3x    frame=11110 fps=439 q=-0.0 size=N/A time=00:07:43.37 bitrate=N/A speed=18.3x    frame=11332 fps=439 q=-0.0 size=N/A time=00:07:52.63 bitrate=N/A speed=18.3x    frame=11539 fps=439 q=-0.0 size=N/A time=00:08:01.27 bitrate=N/A speed=18.3x    frame=11776 fps=439 q=-0.0 size=N/A time=00:08:11.15 bitrate=N/A speed=18.3x    frame=11987 fps=439 q=-0.0 size=N/A time=00:08:19.95 bitrate=N/A speed=18.3x    frame=12228 fps=439 q=-0.0 size=N/A time=00:08:30.00 bitrate=N/A speed=18.3x    frame=12435 fps=438 q=-0.0 size=N/A time=00:08:38.64 bitrate=N/A speed=18.3x    frame=12658 fps=438 q=-0.0 size=N/A time=00:08:47.94 bitrate=N/A speed=18.3x    frame=12844 fps=437 q=-0.0 size=N/A time=00:08:55.70 bitrate=N/A speed=18.2x    frame=13058 fps=436 q=-0.0 size=N/A time=00:09:04.62 bitrate=N/A speed=18.2x    frame=13310 fps=437 q=-0.0 size=N/A time=00:09:15.13 bitrate=N/A speed=18.2x    frame=13554 fps=438 q=-0.0 size=N/A time=00:09:25.31 bitrate=N/A speed=18.3x    frame=13816 fps=439 q=-0.0 size=N/A time=00:09:36.24 bitrate=N/A speed=18.3x    frame=14027 fps=439 q=-0.0 size=N/A time=00:09:45.04 bitrate=N/A speed=18.3x    frame=14177 fps=436 q=-0.0 size=N/A time=00:09:51.29 bitrate=N/A speed=18.2x    frame=14368 fps=435 q=-0.0 size=N/A time=00:09:59.26 bitrate=N/A speed=18.2x    frame=14556 fps=434 q=-0.0 size=N/A time=00:10:07.10 bitrate=N/A speed=18.1x    frame=14804 fps=435 q=-0.0 size=N/A time=00:10:17.45 bitrate=N/A speed=18.1x    frame=15078 fps=436 q=-0.0 size=N/A time=00:10:28.87 bitrate=N/A speed=18.2x    frame=15336 fps=437 q=-0.0 size=N/A time=00:10:39.63 bitrate=N/A speed=18.2x    frame=15598 fps=438 q=-0.0 size=N/A time=00:10:50.56 bitrate=N/A speed=18.3x    frame=15840 fps=439 q=-0.0 size=N/A time=00:11:00.66 bitrate=N/A speed=18.3x    frame=16083 fps=439 q=-0.0 size=N/A time=00:11:10.79 bitrate=N/A speed=18.3x    frame=16331 fps=440 q=-0.0 size=N/A time=00:11:21.13 bitrate=N/A speed=18.3x    frame=16565 fps=440 q=-0.0 size=N/A time=00:11:30.89 bitrate=N/A speed=18.4x    frame=16838 fps=441 q=-0.0 size=N/A time=00:11:42.28 bitrate=N/A speed=18.4x    frame=17091 fps=442 q=-0.0 size=N/A time=00:11:52.83 bitrate=N/A speed=18.4x    frame=17359 fps=443 q=-0.0 size=N/A time=00:12:04.01 bitrate=N/A speed=18.5x    frame=17632 fps=444 q=-0.0 size=N/A time=00:12:15.40 bitrate=N/A speed=18.5x    frame=17902 fps=445 q=-0.0 size=N/A time=00:12:26.66 bitrate=N/A speed=18.6x    frame=18150 fps=445 q=-0.0 size=N/A time=00:12:37.00 bitrate=N/A speed=18.6x    frame=18375 fps=445 q=-0.0 size=N/A time=00:12:46.39 bitrate=N/A speed=18.6x    frame=18637 fps=446 q=-0.0 size=N/A time=00:12:57.31 bitrate=N/A speed=18.6x    frame=18914 fps=447 q=-0.0 size=N/A time=00:13:08.87 bitrate=N/A speed=18.6x    frame=19141 fps=447 q=-0.0 size=N/A time=00:13:18.33 bitrate=N/A speed=18.6x    frame=19392 fps=448 q=-0.0 size=N/A time=00:13:28.80 bitrate=N/A speed=18.7x    frame=19649 fps=448 q=-0.0 size=N/A time=00:13:39.52 bitrate=N/A speed=18.7x    frame=19881 fps=448 q=-0.0 size=N/A time=00:13:49.20 bitrate=N/A speed=18.7x    frame=20121 fps=448 q=-0.0 size=N/A time=00:13:59.21 bitrate=N/A speed=18.7x    frame=20377 fps=449 q=-0.0 size=N/A time=00:14:09.89 bitrate=N/A speed=18.7x    frame=20636 fps=450 q=-0.0 size=N/A time=00:14:20.69 bitrate=N/A speed=18.8x    frame=20876 fps=450 q=-0.0 size=N/A time=00:14:30.70 bitrate=N/A speed=18.8x    frame=21156 fps=451 q=-0.0 size=N/A time=00:14:42.38 bitrate=N/A speed=18.8x    frame=21396 fps=451 q=-0.0 size=N/A time=00:14:52.39 bitrate=N/A speed=18.8x    frame=21647 fps=451 q=-0.0 size=N/A time=00:15:02.86 bitrate=N/A speed=18.8x    frame=21903 fps=452 q=-0.0 size=N/A time=00:15:13.53 bitrate=N/A speed=18.8x    frame=22170 fps=452 q=-0.0 size=N/A time=00:15:24.67 bitrate=N/A speed=18.9x    frame=22448 fps=453 q=-0.0 size=N/A time=00:15:36.26 bitrate=N/A speed=18.9x    frame=22708 fps=454 q=-0.0 size=N/A time=00:15:47.11 bitrate=N/A speed=18.9x    frame=22956 fps=454 q=-0.0 size=N/A time=00:15:57.45 bitrate=N/A speed=18.9x    frame=23230 fps=455 q=-0.0 size=N/A time=00:16:08.88 bitrate=N/A speed=  19x    frame=23481 fps=455 q=-0.0 size=N/A time=00:16:19.35 bitrate=N/A speed=  19x    frame=23721 fps=455 q=-0.0 size=N/A time=00:16:29.36 bitrate=N/A speed=  19x    frame=23994 fps=456 q=-0.0 size=N/A time=00:16:40.74 bitrate=N/A speed=  19x    frame=24295 fps=457 q=-0.0 size=N/A time=00:16:53.30 bitrate=N/A speed=19.1x    frame=24553 fps=458 q=-0.0 size=N/A time=00:17:04.06 bitrate=N/A speed=19.1x    frame=24819 fps=458 q=-0.0 size=N/A time=00:17:15.15 bitrate=N/A speed=19.1x    frame=25081 fps=459 q=-0.0 size=N/A time=00:17:26.08 bitrate=N/A speed=19.1x    frame=25359 fps=460 q=-0.0 size=N/A time=00:17:37.68 bitrate=N/A speed=19.2x    frame=25647 fps=460 q=-0.0 size=N/A time=00:17:49.69 bitrate=N/A speed=19.2x    frame=25924 fps=461 q=-0.0 size=N/A time=00:18:01.24 bitrate=N/A speed=19.2x    frame=26205 fps=462 q=-0.0 size=N/A time=00:18:12.96 bitrate=N/A speed=19.3x    frame=26480 fps=463 q=-0.0 size=N/A time=00:18:24.43 bitrate=N/A speed=19.3x    frame=26725 fps=463 q=-0.0 size=N/A time=00:18:34.65 bitrate=N/A speed=19.3x    frame=26984 fps=463 q=-0.0 size=N/A time=00:18:45.45 bitrate=N/A speed=19.3x    frame=27260 fps=464 q=-0.0 size=N/A time=00:18:56.96 bitrate=N/A speed=19.3x    frame=27536 fps=464 q=-0.0 size=N/A time=00:19:08.48 bitrate=N/A speed=19.4x    frame=27775 fps=464 q=-0.0 size=N/A time=00:19:18.49 bitrate=N/A speed=19.4x    frame=28059 fps=465 q=-0.0 size=N/A time=00:19:30.29 bitrate=N/A speed=19.4x    frame=28330 fps=466 q=-0.0 size=N/A time=00:19:41.59 bitrate=N/A speed=19.4x    frame=28577 fps=466 q=-0.0 size=N/A time=00:19:51.89 bitrate=N/A speed=19.4x    frame=28852 fps=466 q=-0.0 size=N/A time=00:20:03.36 bitrate=N/A speed=19.4x    frame=29135 fps=467 q=-0.0 size=N/A time=00:20:15.17 bitrate=N/A speed=19.5x    frame=29407 fps=467 q=-0.0 size=N/A time=00:20:26.51 bitrate=N/A speed=19.5x    frame=29690 fps=468 q=-0.0 size=N/A time=00:20:38.32 bitrate=N/A speed=19.5x    frame=29957 fps=468 q=-0.0 size=N/A time=00:20:49.45 bitrate=N/A speed=19.5x    frame=30194 fps=468 q=-0.0 size=N/A time=00:20:59.34 bitrate=N/A speed=19.5x    frame=30391 fps=468 q=-0.0 size=N/A time=00:21:07.55 bitrate=N/A speed=19.5x    frame=30661 fps=468 q=-0.0 size=N/A time=00:21:18.81 bitrate=N/A speed=19.5x    frame=30898 fps=468 q=-0.0 size=N/A time=00:21:28.70 bitrate=N/A speed=19.5x    frame=31141 fps=468 q=-0.0 size=N/A time=00:21:38.83 bitrate=N/A speed=19.5x    frame=31411 fps=468 q=-0.0 size=N/A time=00:21:50.10 bitrate=N/A speed=19.5x    frame=31633 fps=468 q=-0.0 size=N/A time=00:21:59.35 bitrate=N/A speed=19.5x    frame=31830 fps=468 q=-0.0 size=N/A time=00:22:07.57 bitrate=N/A speed=19.5x    frame=31992 fps=466 q=-0.0 size=N/A time=00:22:14.33 bitrate=N/A speed=19.4x    frame=32142 fps=465 q=-0.0 size=N/A time=00:22:20.58 bitrate=N/A speed=19.4x    frame=32396 fps=465 q=-0.0 size=N/A time=00:22:31.18 bitrate=N/A speed=19.4x    frame=32635 fps=465 q=-0.0 size=N/A time=00:22:41.15 bitrate=N/A speed=19.4x    frame=32845 fps=465 q=-0.0 size=N/A time=00:22:49.91 bitrate=N/A speed=19.4x    frame=33021 fps=464 q=-0.0 size=N/A time=00:22:57.25 bitrate=N/A speed=19.3x    frame=33218 fps=463 q=-0.0 size=N/A time=00:23:05.46 bitrate=N/A speed=19.3x    frame=33423 fps=463 q=-0.0 size=N/A time=00:23:14.01 bitrate=N/A speed=19.3x    frame=33605 fps=462 q=-0.0 size=N/A time=00:23:21.60 bitrate=N/A speed=19.3x    frame=33848 fps=462 q=-0.0 size=N/A time=00:23:31.74 bitrate=N/A speed=19.3x    frame=34047 fps=462 q=-0.0 size=N/A time=00:23:40.04 bitrate=N/A speed=19.3x    frame=34235 fps=461 q=-0.0 size=N/A time=00:23:47.88 bitrate=N/A speed=19.2x    frame=34394 fps=460 q=-0.0 size=N/A time=00:23:54.51 bitrate=N/A speed=19.2x    frame=34630 fps=460 q=-0.0 size=N/A time=00:24:04.35 bitrate=N/A speed=19.2x    [Parsed_psnr_10 @ 000001db4554b840] PSNR y:47.707500 u:50.711575 v:50.326400 average:48.457930 min:38.844496 max:inf
[out#0/null @ 000001db44c14780] video:14903KiB audio:271324KiB subtitle:0KiB other streams:0KiB global headers:0KiB muxing overhead: unknown
frame=34684 fps=460 q=-0.0 Lsize=N/A time=00:24:06.61 bitrate=N/A speed=19.2x    
